<svg version="1.1" xmlns="http://www.w3.org/2000/svg" xmlns:xlink="http://www.w3.org/1999/xlink" width="600" height="400" style="width: 600px; height: 400px;"><defs><clipPath id="axXaPkNumUsh"><path fill="none" stroke="none" d=" M 94 5 L 570 5 L 570 341 L 94 341 L 94 5 Z"/></clipPath><clipPath id="zmTUiMfriJkk"><path fill="none" stroke="none" d=" M 94 5 L 570 5 L 570 341 L 94 341 L 94 5 Z"/></clipPath><clipPath id="zkDtwiMyiyHR"><path fill="none" stroke="none" d=" M 94 5 L 570 5 L 570 341 L 94 341 L 94 5 Z"/></clipPath><clipPath id="iOfefndVDfwJ"><path fill="none" stroke="none" d=" M 94 5 L 570 5 L 570 341 L 94 341 L 94 5 Z"/></clipPath><clipPath id="qUlNvoeZbMyd"><path fill="none" stroke="none" d=" M 94 5 L 570 5 L 570 341 L 94 341 L 94 5 Z"/></clipPath><clipPath id="XVFreHLCszaU"><path fill="none" stroke="none" d=" M 94 5 L 570 5 L 570 341 L 94 341 L 94 5 Z"/></clipPath><clipPath id="waxnGrUhqQzy"><path fill="none" stroke="none" d=" M 94 5 L 570 5 L 570 341 L 94 341 L 94 5 Z"/></clipPath><clipPath id="DkiVQTTJIkPA"><path fill="none" stroke="none" d=" M 94 5 L 570 5 L 570 341 L 94 341 L 94 5 Z"/></clipPath><clipPath id="vlTdiseFgsrh"><path fill="none" stroke="none" d=" M 94 5 L 570 5 L 570 341 L 94 341 L 94 5 Z"/></clipPath><clipPath id="BSvGDUEGZuss"><path fill="none" stroke="none" d=" M 94 5 L 570 5 L 570 341 L 94 341 L 94 5 Z"/></clipPath></defs><g><g transform="scale(1,1) translate(0.5,0.5)"><rect fill="#FFFFFF" stroke="none" x="0" y="0" width="600" height="400"/><rect fill="#ffffff" stroke="none" x="0" y="0" width="600" height="400"/><rect fill="#FFFFFF" stroke="none" x="94" y="5" width="476" height="336"/><rect fill="#ffffff" stroke="none" x="94" y="5" width="476" height="336"/><g><rect fill="none" stroke="#e5e5e5" x="94" y="5" width="476" height="336" stroke-linejoin="bevel" stroke-miterlimit="10"/></g><g clip-path="url(#axXaPkNumUsh)"><g><g><path fill="none" stroke="#e5e5e5" paint-order="fill stroke markers" d=" M 111 341 L 111 5" stroke-linejoin="bevel" stroke-miterlimit="10"/><path fill="none" stroke="#e5e5e5" paint-order="fill stroke markers" d=" M 202 341 L 202 5" stroke-linejoin="bevel" stroke-miterlimit="10"/><path fill="none" stroke="#e5e5e5" paint-order="fill stroke markers" d=" M 293 341 L 293 5" stroke-linejoin="bevel" stroke-miterlimit="10"/><path fill="none" stroke="#e5e5e5" paint-order="fill stroke markers" d=" M 384 341 L 384 5" stroke-linejoin="bevel" stroke-miterlimit="10"/><path fill="none" stroke="#e5e5e5" paint-order="fill stroke markers" d=" M 475 341 L 475 5" stroke-linejoin="bevel" stroke-miterlimit="10"/><path fill="none" stroke="#e5e5e5" paint-order="fill stroke markers" d=" M 567 341 L 567 5" stroke-linejoin="bevel" stroke-miterlimit="10"/></g></g></g><g clip-path="url(#zmTUiMfriJkk)"><g><g><path fill="none" stroke="#e5e5e5" paint-order="fill stroke markers" d=" M 94 326 L 570 326" stroke-linejoin="bevel" stroke-miterlimit="10"/><path fill="none" stroke="#e5e5e5" paint-order="fill stroke markers" d=" M 94 277 L 570 277" stroke-linejoin="bevel" stroke-miterlimit="10"/><path fill="none" stroke="#e5e5e5" paint-order="fill stroke markers" d=" M 94 229 L 570 229" stroke-linejoin="bevel" stroke-miterlimit="10"/><path fill="none" stroke="#e5e5e5" paint-order="fill stroke markers" d=" M 94 181 L 570 181" stroke-linejoin="bevel" stroke-miterlimit="10"/><path fill="none" stroke="#e5e5e5" paint-order="fill stroke markers" d=" M 94 132 L 570 132" stroke-linejoin="bevel" stroke-miterlimit="10"/><path fill="none" stroke="#e5e5e5" paint-order="fill stroke markers" d=" M 94 84 L 570 84" stroke-linejoin="bevel" stroke-miterlimit="10"/><path fill="none" stroke="#e5e5e5" paint-order="fill stroke markers" d=" M 94 36 L 570 36" stroke-linejoin="bevel" stroke-miterlimit="10"/></g></g></g><g clip-path="url(#zkDtwiMyiyHR)"><g><g><path fill="none" stroke="none"/><path fill="none" stroke="red" paint-order="fill stroke markers" d=" M 115.63636363636367 323.3030304024902 L 138.41148325358856 310.99723129062147 L 161.18660287081343 298.37508772857643 L 183.9617224880383 285.42424251126977 L 206.73684210526318 272.1316863383613 L 229.51196172248808 258.48371422500054 L 252.28708133971296 244.46587836873073 L 275.06220095693783 230.06293713179366 L 297.83732057416273 215.25879976012334 L 320.6124401913876 200.03646641750174 L 343.3875598086124 184.3779630650631 L 366.1626794258373 168.26427066168117 L 388.9377990430622 151.67524809890756 L 411.7129186602871 134.5895482138951 L 434.488038277512 116.98452614392818 L 457.2631578947369 98.83613919525828 L 480.0382775119617 80.11883729521946 L 502.8133971291866 60.80544297798201 L 525.5885167464114 40.867019718439224 L 548.3636363636364 20.272727272727252" stroke-linejoin="bevel" stroke-miterlimit="10" stroke-width="2"/></g></g></g><g clip-path="url(#iOfefndVDfwJ)"><g><g><path fill="none" stroke="none"/><path fill="none" stroke="tomato" paint-order="fill stroke markers" d=" M 115.63636363636367 325.72122733519655 L 138.41148325358856 325.50958748461824 L 161.18660287081343 324.9952192117412 L 183.9617224880383 324.1771562769028 L 206.73684210526318 323.0538587746245 L 229.51196172248808 321.6232058705664 L 252.28708133971296 319.8824857550858 L 275.06220095693783 317.82838272421077 L 297.83732057416273 315.4569612725087 L 320.6124401913876 312.7636470542967 L 343.3875598086124 309.74320453953317 L 366.1626794258373 306.38971115803827 L 388.9377990430622 302.6965276899016 L 411.7129186602871 298.65626462044713 L 434.488038277512 294.2607441342467 L 457.2631578947369 289.5009573736364 L 480.0382775119617 284.3670165320667 L 502.8133971291866 278.84810129036566 L 525.5885167464114 272.9323990333794 L 548.3636363636364 266.6070382040184" stroke-linejoin="bevel" stroke-miterlimit="10"/></g></g></g><g clip-path="url(#qUlNvoeZbMyd)"><g><g><path fill="none" stroke="none"/><path fill="none" stroke="orange" paint-order="fill stroke markers" d=" M 115.63636363636367 325.7272727272725 L 138.41148325358856 325.72714607618195 L 161.18660287081343 325.7258755044768 L 183.9617224880383 325.7211672328734 L 206.73684210526318 325.7095801211133 L 229.51196172248808 325.6866630746272 L 252.28708133971296 325.6470758207935 L 275.06220095693783 325.58469428337696 L 297.83732057416273 325.49270168969315 L 320.6124401913876 325.3636664553842 L 343.3875598086124 325.1896078048637 L 366.1626794258373 324.9620500005025 L 388.9377990430622 324.672065969713 L 411.7129186602871 324.3103110357439 L 434.488038277512 323.8670473747852 L 457.2631578947369 323.33215973854635 L 480.0382775119617 322.6951628974218 L 502.8133971291866 321.94520117426634 L 525.5885167464114 321.07104035214945 L 548.3636363636364 320.0610521505914" stroke-linejoin="bevel" stroke-miterlimit="10"/></g></g></g><g clip-path="url(#XVFreHLCszaU)"><g><g><path fill="none" stroke="none"/><path fill="red" stroke="red" paint-order="fill stroke markers" d=" M 119.13636363636367 323.3030304024902 A 3.5 3.5 0 1 1 119.13636188636382 323.29953040307356" stroke-linejoin="bevel" stroke-miterlimit="10"/><path fill="red" stroke="red" paint-order="fill stroke markers" d=" M 141.91148325358856 310.99723129062147 A 3.5 3.5 0 1 1 141.9114815035887 310.9937312912048" stroke-linejoin="bevel" stroke-miterlimit="10"/><path fill="red" stroke="red" paint-order="fill stroke markers" d=" M 164.68660287081343 298.37508772857643 A 3.5 3.5 0 1 1 164.68660112081358 298.3715877291598" stroke-linejoin="bevel" stroke-miterlimit="10"/><path fill="red" stroke="red" paint-order="fill stroke markers" d=" M 187.4617224880383 285.42424251126977 A 3.5 3.5 0 1 1 187.46172073803845 285.4207425118531" stroke-linejoin="bevel" stroke-miterlimit="10"/><path fill="red" stroke="red" paint-order="fill stroke markers" d=" M 210.23684210526318 272.1316863383613 A 3.5 3.5 0 1 1 210.23684035526333 272.12818633894466" stroke-linejoin="bevel" stroke-miterlimit="10"/><path fill="red" stroke="red" paint-order="fill stroke markers" d=" M 233.01196172248808 258.48371422500054 A 3.5 3.5 0 1 1 233.01195997248823 258.4802142255839" stroke-linejoin="bevel" stroke-miterlimit="10"/><path fill="red" stroke="red" paint-order="fill stroke markers" d=" M 255.78708133971296 244.46587836873073 A 3.5 3.5 0 1 1 255.7870795897131 244.46237836931405" stroke-linejoin="bevel" stroke-miterlimit="10"/><path fill="red" stroke="red" paint-order="fill stroke markers" d=" M 278.56220095693783 230.06293713179366 A 3.5 3.5 0 1 1 278.562199206938 230.05943713237698" stroke-linejoin="bevel" stroke-miterlimit="10"/><path fill="red" stroke="red" paint-order="fill stroke markers" d=" M 301.33732057416273 215.25879976012334 A 3.5 3.5 0 1 1 301.3373188241629 215.25529976070666" stroke-linejoin="bevel" stroke-miterlimit="10"/><path fill="red" stroke="red" paint-order="fill stroke markers" d=" M 324.1124401913876 200.03646641750174 A 3.5 3.5 0 1 1 324.1124384413877 200.03296641808507" stroke-linejoin="bevel" stroke-miterlimit="10"/><path fill="red" stroke="red" paint-order="fill stroke markers" d=" M 346.8875598086124 184.3779630650631 A 3.5 3.5 0 1 1 346.88755805861257 184.37446306564644" stroke-linejoin="bevel" stroke-miterlimit="10"/><path fill="red" stroke="red" paint-order="fill stroke markers" d=" M 369.6626794258373 168.26427066168117 A 3.5 3.5 0 1 1 369.6626776758375 168.2607706622645" stroke-linejoin="bevel" stroke-miterlimit="10"/><path fill="red" stroke="red" paint-order="fill stroke markers" d=" M 392.4377990430622 151.67524809890756 A 3.5 3.5 0 1 1 392.4377972930624 151.67174809949088" stroke-linejoin="bevel" stroke-miterlimit="10"/><path fill="red" stroke="red" paint-order="fill stroke markers" d=" M 415.2129186602871 134.5895482138951 A 3.5 3.5 0 1 1 415.2129169102872 134.58604821447844" stroke-linejoin="bevel" stroke-miterlimit="10"/><path fill="red" stroke="red" paint-order="fill stroke markers" d=" M 437.988038277512 116.98452614392818 A 3.5 3.5 0 1 1 437.9880365275121 116.9810261445115" stroke-linejoin="bevel" stroke-miterlimit="10"/><path fill="red" stroke="red" paint-order="fill stroke markers" d=" M 460.7631578947369 98.83613919525828 A 3.5 3.5 0 1 1 460.763156144737 98.83263919584161" stroke-linejoin="bevel" stroke-miterlimit="10"/><path fill="red" stroke="red" paint-order="fill stroke markers" d=" M 483.5382775119617 80.11883729521946 A 3.5 3.5 0 1 1 483.53827576196187 80.11533729580279" stroke-linejoin="bevel" stroke-miterlimit="10"/><path fill="red" stroke="red" paint-order="fill stroke markers" d=" M 506.3133971291866 60.80544297798201 A 3.5 3.5 0 1 1 506.3133953791868 60.80194297856534" stroke-linejoin="bevel" stroke-miterlimit="10"/><path fill="red" stroke="red" paint-order="fill stroke markers" d=" M 529.0885167464114 40.867019718439224 A 3.5 3.5 0 1 1 529.0885149964115 40.863519719022555" stroke-linejoin="bevel" stroke-miterlimit="10"/><path fill="red" stroke="red" paint-order="fill stroke markers" d=" M 551.8636363636364 20.272727272727252 A 3.5 3.5 0 1 1 551.8636346136365 20.269227273310584" stroke-linejoin="bevel" stroke-miterlimit="10"/></g></g></g><g clip-path="url(#waxnGrUhqQzy)"><g><g stroke="tomato" stroke-linejoin="bevel" stroke-miterlimit="10"><path fill="none" stroke="none"/><path fill="none" stroke="" d=""/><g transform="translate(115.63636363636367,325.72122733519655)"><path fill="none" stroke="" paint-order="fill stroke markers" d=" M -2.5 2.5 L 2.5 -2.5 M -2.5 -2.5 L 2.5 2.5"/><g transform="translate(-115.63636363636367,-325.72122733519655)"><path fill="none" stroke="" d=""/><g transform="translate(138.41148325358856,325.50958748461824)"><path fill="none" stroke="" paint-order="fill stroke markers" d=" M -2.5 2.5 L 2.5 -2.5 M -2.5 -2.5 L 2.5 2.5"/><g transform="translate(-138.41148325358856,-325.50958748461824)"><path fill="none" stroke="" d=""/><g transform="translate(161.18660287081343,324.9952192117412)"><path fill="none" stroke="" paint-order="fill stroke markers" d=" M -2.5 2.5 L 2.5 -2.5 M -2.5 -2.5 L 2.5 2.5"/><g transform="translate(-161.18660287081343,-324.9952192117412)"><path fill="none" stroke="" d=""/><g transform="translate(183.9617224880383,324.1771562769028)"><path fill="none" stroke="" paint-order="fill stroke markers" d=" M -2.5 2.5 L 2.5 -2.5 M -2.5 -2.5 L 2.5 2.5"/><g transform="translate(-183.9617224880383,-324.1771562769028)"><path fill="none" stroke="" d=""/><g transform="translate(206.73684210526318,323.0538587746245)"><path fill="none" stroke="" paint-order="fill stroke markers" d=" M -2.5 2.5 L 2.5 -2.5 M -2.5 -2.5 L 2.5 2.5"/><g transform="translate(-206.73684210526318,-323.0538587746245)"><path fill="none" stroke="" d=""/><g transform="translate(229.51196172248808,321.6232058705664)"><path fill="none" stroke="" paint-order="fill stroke markers" d=" M -2.5 2.5 L 2.5 -2.5 M -2.5 -2.5 L 2.5 2.5"/><g transform="translate(-229.51196172248808,-321.6232058705664)"><path fill="none" stroke="" d=""/><g transform="translate(252.28708133971296,319.8824857550858)"><path fill="none" stroke="" paint-order="fill stroke markers" d=" M -2.5 2.5 L 2.5 -2.5 M -2.5 -2.5 L 2.5 2.5"/><g transform="translate(-252.28708133971296,-319.8824857550858)"><path fill="none" stroke="" d=""/><g transform="translate(275.06220095693783,317.82838272421077)"><path fill="none" stroke="" paint-order="fill stroke markers" d=" M -2.5 2.5 L 2.5 -2.5 M -2.5 -2.5 L 2.5 2.5"/><g transform="translate(-275.06220095693783,-317.82838272421077)"><path fill="none" stroke="" d=""/><g transform="translate(297.83732057416273,315.4569612725087)"><path fill="none" stroke="" paint-order="fill stroke markers" d=" M -2.5 2.5 L 2.5 -2.5 M -2.5 -2.5 L 2.5 2.5"/><g transform="translate(-297.83732057416273,-315.4569612725087)"><path fill="none" stroke="" d=""/><g transform="translate(320.6124401913876,312.7636470542967)"><path fill="none" stroke="" paint-order="fill stroke markers" d=" M -2.5 2.5 L 2.5 -2.5 M -2.5 -2.5 L 2.5 2.5"/><g transform="translate(-320.6124401913876,-312.7636470542967)"><path fill="none" stroke="" d=""/><g transform="translate(343.3875598086124,309.74320453953317)"><path fill="none" stroke="" paint-order="fill stroke markers" d=" M -2.5 2.5 L 2.5 -2.5 M -2.5 -2.5 L 2.5 2.5"/><g transform="translate(-343.3875598086124,-309.74320453953317)"><path fill="none" stroke="" d=""/><g transform="translate(366.1626794258373,306.38971115803827)"><path fill="none" stroke="" paint-order="fill stroke markers" d=" M -2.5 2.5 L 2.5 -2.5 M -2.5 -2.5 L 2.5 2.5"/><g transform="translate(-366.1626794258373,-306.38971115803827)"><path fill="none" stroke="" d=""/><g transform="translate(388.9377990430622,302.6965276899016)"><path fill="none" stroke="" paint-order="fill stroke markers" d=" M -2.5 2.5 L 2.5 -2.5 M -2.5 -2.5 L 2.5 2.5"/><g transform="translate(-388.9377990430622,-302.6965276899016)"><path fill="none" stroke="" d=""/><g transform="translate(411.7129186602871,298.65626462044713)"><path fill="none" stroke="" paint-order="fill stroke markers" d=" M -2.5 2.5 L 2.5 -2.5 M -2.5 -2.5 L 2.5 2.5"/><g transform="translate(-411.7129186602871,-298.65626462044713)"><path fill="none" stroke="" d=""/><g transform="translate(434.488038277512,294.2607441342467)"><path fill="none" stroke="" paint-order="fill stroke markers" d=" M -2.5 2.5 L 2.5 -2.5 M -2.5 -2.5 L 2.5 2.5"/><g transform="translate(-434.488038277512,-294.2607441342467)"><path fill="none" stroke="" d=""/><g transform="translate(457.2631578947369,289.5009573736364)"><path fill="none" stroke="" paint-order="fill stroke markers" d=" M -2.5 2.5 L 2.5 -2.5 M -2.5 -2.5 L 2.5 2.5"/><g transform="translate(-457.2631578947369,-289.5009573736364)"><path fill="none" stroke="" d=""/><g transform="translate(480.0382775119617,284.3670165320667)"><path fill="none" stroke="" paint-order="fill stroke markers" d=" M -2.5 2.5 L 2.5 -2.5 M -2.5 -2.5 L 2.5 2.5"/><g transform="translate(-480.0382775119617,-284.3670165320667)"><path fill="none" stroke="" d=""/><g transform="translate(502.8133971291866,278.84810129036566)"><path fill="none" stroke="" paint-order="fill stroke markers" d=" M -2.5 2.5 L 2.5 -2.5 M -2.5 -2.5 L 2.5 2.5"/><g transform="translate(-502.8133971291866,-278.84810129036566)"><path fill="none" stroke="" d=""/><g transform="translate(525.5885167464114,272.9323990333794)"><path fill="none" stroke="" paint-order="fill stroke markers" d=" M -2.5 2.5 L 2.5 -2.5 M -2.5 -2.5 L 2.5 2.5"/><g transform="translate(-525.5885167464114,-272.9323990333794)"><path fill="none" stroke="" d=""/><g transform="translate(548.3636363636364,266.6070382040184)"><path fill="none" stroke="" paint-order="fill stroke markers" d=" M -2.5 2.5 L 2.5 -2.5 M -2.5 -2.5 L 2.5 2.5"/><g transform="translate(-548.3636363636364,-266.6070382040184)"/></g></g></g></g></g></g></g></g></g></g></g></g></g></g></g></g></g></g></g></g></g></g></g></g></g></g></g></g></g></g></g></g></g></g></g></g></g></g></g></g></g></g><g clip-path="url(#DkiVQTTJIkPA)"><g><g><path fill="none" stroke="none"/><path fill="white" stroke="orange" paint-order="fill stroke markers" d=" M 118.13636363636367 325.7272727272725 A 2.5 2.5 0 1 1 118.13636238636377 325.7247727276892" stroke-linejoin="bevel" stroke-miterlimit="10"/><path fill="white" stroke="orange" paint-order="fill stroke markers" d=" M 140.91148325358856 325.72714607618195 A 2.5 2.5 0 1 1 140.91148200358867 325.7246460765986" stroke-linejoin="bevel" stroke-miterlimit="10"/><path fill="white" stroke="orange" paint-order="fill stroke markers" d=" M 163.68660287081343 325.7258755044768 A 2.5 2.5 0 1 1 163.68660162081355 325.72337550489345" stroke-linejoin="bevel" stroke-miterlimit="10"/><path fill="white" stroke="orange" paint-order="fill stroke markers" d=" M 186.4617224880383 325.7211672328734 A 2.5 2.5 0 1 1 186.46172123803842 325.7186672332901" stroke-linejoin="bevel" stroke-miterlimit="10"/><path fill="white" stroke="orange" paint-order="fill stroke markers" d=" M 209.23684210526318 325.7095801211133 A 2.5 2.5 0 1 1 209.2368408552633 325.70708012152994" stroke-linejoin="bevel" stroke-miterlimit="10"/><path fill="white" stroke="orange" paint-order="fill stroke markers" d=" M 232.01196172248808 325.6866630746272 A 2.5 2.5 0 1 1 232.0119604724882 325.68416307504384" stroke-linejoin="bevel" stroke-miterlimit="10"/><path fill="white" stroke="orange" paint-order="fill stroke markers" d=" M 254.78708133971296 325.6470758207935 A 2.5 2.5 0 1 1 254.78708008971307 325.64457582121014" stroke-linejoin="bevel" stroke-miterlimit="10"/><path fill="white" stroke="orange" paint-order="fill stroke markers" d=" M 277.56220095693783 325.58469428337696 A 2.5 2.5 0 1 1 277.5621997069379 325.5821942837936" stroke-linejoin="bevel" stroke-miterlimit="10"/><path fill="white" stroke="orange" paint-order="fill stroke markers" d=" M 300.33732057416273 325.49270168969315 A 2.5 2.5 0 1 1 300.3373193241628 325.4902016901098" stroke-linejoin="bevel" stroke-miterlimit="10"/><path fill="white" stroke="orange" paint-order="fill stroke markers" d=" M 323.1124401913876 325.3636664553842 A 2.5 2.5 0 1 1 323.11243894138767 325.36116645580086" stroke-linejoin="bevel" stroke-miterlimit="10"/><path fill="white" stroke="orange" paint-order="fill stroke markers" d=" M 345.8875598086124 325.1896078048637 A 2.5 2.5 0 1 1 345.8875585586125 325.1871078052804" stroke-linejoin="bevel" stroke-miterlimit="10"/><path fill="white" stroke="orange" paint-order="fill stroke markers" d=" M 368.6626794258373 324.9620500005025 A 2.5 2.5 0 1 1 368.6626781758374 324.95955000091914" stroke-linejoin="bevel" stroke-miterlimit="10"/><path fill="white" stroke="orange" paint-order="fill stroke markers" d=" M 391.4377990430622 324.672065969713 A 2.5 2.5 0 1 1 391.4377977930623 324.66956597012967" stroke-linejoin="bevel" stroke-miterlimit="10"/><path fill="white" stroke="orange" paint-order="fill stroke markers" d=" M 414.2129186602871 324.3103110357439 A 2.5 2.5 0 1 1 414.21291741028716 324.30781103616056" stroke-linejoin="bevel" stroke-miterlimit="10"/><path fill="white" stroke="orange" paint-order="fill stroke markers" d=" M 436.988038277512 323.8670473747852 A 2.5 2.5 0 1 1 436.98803702751206 323.8645473752019" stroke-linejoin="bevel" stroke-miterlimit="10"/><path fill="white" stroke="orange" paint-order="fill stroke markers" d=" M 459.7631578947369 323.33215973854635 A 2.5 2.5 0 1 1 459.76315664473697 323.329659738963" stroke-linejoin="bevel" stroke-miterlimit="10"/><path fill="white" stroke="orange" paint-order="fill stroke markers" d=" M 482.5382775119617 322.6951628974218 A 2.5 2.5 0 1 1 482.5382762619618 322.6926628978385" stroke-linejoin="bevel" stroke-miterlimit="10"/><path fill="white" stroke="orange" paint-order="fill stroke markers" d=" M 505.3133971291866 321.94520117426634 A 2.5 2.5 0 1 1 505.3133958791867 321.942701174683" stroke-linejoin="bevel" stroke-miterlimit="10"/><path fill="white" stroke="orange" paint-order="fill stroke markers" d=" M 528.0885167464114 321.07104035214945 A 2.5 2.5 0 1 1 528.0885154964116 321.0685403525661" stroke-linejoin="bevel" stroke-miterlimit="10"/><path fill="white" stroke="orange" paint-order="fill stroke markers" d=" M 550.8636363636364 320.0610521505914 A 2.5 2.5 0 1 1 550.8636351136365 320.0585521510081" stroke-linejoin="bevel" stroke-miterlimit="10"/></g></g></g><g clip-path="url(#vlTdiseFgsrh)"><g><g/><g stroke="orange" stroke-linejoin="bevel" stroke-miterlimit="10" fill="#444444"><path fill="#ffffff" stroke="#e5e5e5" paint-order="fill stroke markers" d=" M 104 15 L 185.09375 15 L 185.09375 101 L 104 101 L 104 15 Z" fill-opacity="0.95" stroke-linejoin="bevel" stroke-miterlimit="10" stroke-opacity="0.5"/><text fill="#444444" stroke="none" font-family="helvetica" font-size="10pt" font-style="normal" font-weight="normal" text-decoration="normal" x="139" y="35" text-anchor="start" dominant-baseline="central">M/M/1</text><g><path fill="none" stroke="red" paint-order="fill stroke markers" d=" M 114 35 L 134 35" stroke-linejoin="bevel" stroke-miterlimit="10" stroke-width="2"/></g><path fill="red" stroke="red" paint-order="fill stroke markers" d=" M 128 35 A 4 4 0 1 1 127.99999800000016 34.99600000066666" stroke-linejoin="bevel" stroke-miterlimit="10"/><text fill="#444444" stroke="none" font-family="helvetica" font-size="10pt" font-style="normal" font-weight="normal" text-decoration="normal" x="139" y="58" text-anchor="start" dominant-baseline="central">M/M/2</text><g><path fill="none" stroke="tomato" paint-order="fill stroke markers" d=" M 114 58 L 134 58" stroke-linejoin="bevel" stroke-miterlimit="10"/></g><path fill="" stroke="" d=""/><g transform="translate(124,58)"><path fill="" stroke="" paint-order="fill stroke markers" d=" M -4 4 L 4 -4 M -4 -4 L 4 4"/><g transform="translate(-124,-58)"><text fill="" stroke="none" font-family="helvetica" font-size="10pt" font-style="normal" font-weight="normal" text-decoration="normal" x="139" y="81" text-anchor="start" dominant-baseline="central">M/M/4</text><g><path fill="none" stroke="" paint-order="fill stroke markers" d=" M 114 81 L 134 81"/></g><path fill="white" stroke="orange" paint-order="fill stroke markers" d=" M 128 81 A 4 4 0 1 1 127.99999800000016 80.99600000066667" stroke-linejoin="bevel" stroke-miterlimit="10"/></g></g></g></g></g><g/><g/><g><g fill="#444444"><path fill="none" stroke="black" paint-order="fill stroke markers" d=" M 94 341 L 570 341" stroke-linejoin="bevel" stroke-miterlimit="10"/><path fill="none" stroke="black" paint-order="fill stroke markers" d=" M 111 347 L 111 339" stroke-linejoin="bevel" stroke-miterlimit="10"/><path fill="none" stroke="black" paint-order="fill stroke markers" d=" M 202 347 L 202 339" stroke-linejoin="bevel" stroke-miterlimit="10"/><path fill="none" stroke="black" paint-order="fill stroke markers" d=" M 293 347 L 293 339" stroke-linejoin="bevel" stroke-miterlimit="10"/><path fill="none" stroke="black" paint-order="fill stroke markers" d=" M 384 347 L 384 339" stroke-linejoin="bevel" stroke-miterlimit="10"/><path fill="none" stroke="black" paint-order="fill stroke markers" d=" M 475 347 L 475 339" stroke-linejoin="bevel" stroke-miterlimit="10"/><path fill="none" stroke="black" paint-order="fill stroke markers" d=" M 567 347 L 567 339" stroke-linejoin="bevel" stroke-miterlimit="10"/><path fill="none" stroke="black" paint-order="fill stroke markers" d=" M 111 345 L 111 341" stroke-linejoin="bevel" stroke-miterlimit="10"/><path fill="none" stroke="black" paint-order="fill stroke markers" d=" M 129 345 L 129 341" stroke-linejoin="bevel" stroke-miterlimit="10"/><path fill="none" stroke="black" paint-order="fill stroke markers" d=" M 148 345 L 148 341" stroke-linejoin="bevel" stroke-miterlimit="10"/><path fill="none" stroke="black" paint-order="fill stroke markers" d=" M 166 345 L 166 341" stroke-linejoin="bevel" stroke-miterlimit="10"/><path fill="none" stroke="black" paint-order="fill stroke markers" d=" M 184 345 L 184 341" stroke-linejoin="bevel" stroke-miterlimit="10"/><path fill="none" stroke="black" paint-order="fill stroke markers" d=" M 202 345 L 202 341" stroke-linejoin="bevel" stroke-miterlimit="10"/><path fill="none" stroke="black" paint-order="fill stroke markers" d=" M 220 345 L 220 341" stroke-linejoin="bevel" stroke-miterlimit="10"/><path fill="none" stroke="black" paint-order="fill stroke markers" d=" M 239 345 L 239 341" stroke-linejoin="bevel" stroke-miterlimit="10"/><path fill="none" stroke="black" paint-order="fill stroke markers" d=" M 257 345 L 257 341" stroke-linejoin="bevel" stroke-miterlimit="10"/><path fill="none" stroke="black" paint-order="fill stroke markers" d=" M 275 345 L 275 341" stroke-linejoin="bevel" stroke-miterlimit="10"/><path fill="none" stroke="black" paint-order="fill stroke markers" d=" M 293 345 L 293 341" stroke-linejoin="bevel" stroke-miterlimit="10"/><path fill="none" stroke="black" paint-order="fill stroke markers" d=" M 312 345 L 312 341" stroke-linejoin="bevel" stroke-miterlimit="10"/><path fill="none" stroke="black" paint-order="fill stroke markers" d=" M 330 345 L 330 341" stroke-linejoin="bevel" stroke-miterlimit="10"/><path fill="none" stroke="black" paint-order="fill stroke markers" d=" M 348 345 L 348 341" stroke-linejoin="bevel" stroke-miterlimit="10"/><path fill="none" stroke="black" paint-order="fill stroke markers" d=" M 366 345 L 366 341" stroke-linejoin="bevel" stroke-miterlimit="10"/><path fill="none" stroke="black" paint-order="fill stroke markers" d=" M 384 345 L 384 341" stroke-linejoin="bevel" stroke-miterlimit="10"/><path fill="none" stroke="black" paint-order="fill stroke markers" d=" M 403 345 L 403 341" stroke-linejoin="bevel" stroke-miterlimit="10"/><path fill="none" stroke="black" paint-order="fill stroke markers" d=" M 421 345 L 421 341" stroke-linejoin="bevel" stroke-miterlimit="10"/><path fill="none" stroke="black" paint-order="fill stroke markers" d=" M 439 345 L 439 341" stroke-linejoin="bevel" stroke-miterlimit="10"/><path fill="none" stroke="black" paint-order="fill stroke markers" d=" M 457 345 L 457 341" stroke-linejoin="bevel" stroke-miterlimit="10"/><path fill="none" stroke="black" paint-order="fill stroke markers" d=" M 475 345 L 475 341" stroke-linejoin="bevel" stroke-miterlimit="10"/><path fill="none" stroke="black" paint-order="fill stroke markers" d=" M 494 345 L 494 341" stroke-linejoin="bevel" stroke-miterlimit="10"/><path fill="none" stroke="black" paint-order="fill stroke markers" d=" M 512 345 L 512 341" stroke-linejoin="bevel" stroke-miterlimit="10"/><path fill="none" stroke="black" paint-order="fill stroke markers" d=" M 530 345 L 530 341" stroke-linejoin="bevel" stroke-miterlimit="10"/><path fill="none" stroke="black" paint-order="fill stroke markers" d=" M 548 345 L 548 341" stroke-linejoin="bevel" stroke-miterlimit="10"/><path fill="" stroke="black" paint-order="fill stroke markers" d=" M 567 345 L 567 341" stroke-linejoin="bevel" stroke-miterlimit="10"/><g transform="translate(111,352) rotate(0,0,0)"><text fill="" stroke="none" font-family="helvetica" font-size="12pt" font-style="normal" font-weight="normal" text-decoration="normal" x="0" y="0" text-anchor="middle" dominant-baseline="hanging">0</text><g transform="rotate(0,0,0) translate(-111,-352) translate(202,352) rotate(0,0,0)"><text fill="" stroke="none" font-family="helvetica" font-size="12pt" font-style="normal" font-weight="normal" text-decoration="normal" x="0" y="0" text-anchor="middle" dominant-baseline="hanging">20</text><g transform="rotate(0,0,0) translate(-202,-352) translate(293,352) rotate(0,0,0)"><text fill="" stroke="none" font-family="helvetica" font-size="12pt" font-style="normal" font-weight="normal" text-decoration="normal" x="0" y="0" text-anchor="middle" dominant-baseline="hanging">40</text><g transform="rotate(0,0,0) translate(-293,-352) translate(384,352) rotate(0,0,0)"><text fill="" stroke="none" font-family="helvetica" font-size="12pt" font-style="normal" font-weight="normal" text-decoration="normal" x="0" y="0" text-anchor="middle" dominant-baseline="hanging">60</text><g transform="rotate(0,0,0) translate(-384,-352) translate(475,352) rotate(0,0,0)"><text fill="" stroke="none" font-family="helvetica" font-size="12pt" font-style="normal" font-weight="normal" text-decoration="normal" x="0" y="0" text-anchor="middle" dominant-baseline="hanging">80</text><g transform="rotate(0,0,0) translate(-475,-352) translate(567,352) rotate(0,0,0)"><text fill="" stroke="none" font-family="helvetica" font-size="12pt" font-style="normal" font-weight="normal" text-decoration="normal" x="0" y="0" text-anchor="middle" dominant-baseline="hanging">100</text><g transform="rotate(0,0,0) translate(-567,-352) translate(332,376) rotate(0,0,0)"><text fill="" stroke="none" font-family="helvetica" font-size="15pt" font-style="italic" font-weight="normal" text-decoration="normal" x="0" y="0" text-anchor="middle" dominant-baseline="hanging">Arrival Traffic (mb/s)</text><g transform="rotate(0,0,0) translate(-332,-376)"/></g></g></g></g></g></g></g></g></g><g><g fill="#444444"><path fill="none" stroke="black" paint-order="fill stroke markers" d=" M 94 341 L 94 5" stroke-linejoin="bevel" stroke-miterlimit="10"/><path fill="none" stroke="black" paint-order="fill stroke markers" d=" M 88 326 L 96 326" stroke-linejoin="bevel" stroke-miterlimit="10"/><path fill="none" stroke="black" paint-order="fill stroke markers" d=" M 88 277 L 96 277" stroke-linejoin="bevel" stroke-miterlimit="10"/><path fill="none" stroke="black" paint-order="fill stroke markers" d=" M 88 229 L 96 229" stroke-linejoin="bevel" stroke-miterlimit="10"/><path fill="none" stroke="black" paint-order="fill stroke markers" d=" M 88 181 L 96 181" stroke-linejoin="bevel" stroke-miterlimit="10"/><path fill="none" stroke="black" paint-order="fill stroke markers" d=" M 88 132 L 96 132" stroke-linejoin="bevel" stroke-miterlimit="10"/><path fill="none" stroke="black" paint-order="fill stroke markers" d=" M 88 84 L 96 84" stroke-linejoin="bevel" stroke-miterlimit="10"/><path fill="none" stroke="black" paint-order="fill stroke markers" d=" M 88 36 L 96 36" stroke-linejoin="bevel" stroke-miterlimit="10"/><path fill="none" stroke="black" paint-order="fill stroke markers" d=" M 90 335 L 94 335" stroke-linejoin="bevel" stroke-miterlimit="10"/><path fill="none" stroke="black" paint-order="fill stroke markers" d=" M 90 326 L 94 326" stroke-linejoin="bevel" stroke-miterlimit="10"/><path fill="none" stroke="black" paint-order="fill stroke markers" d=" M 90 316 L 94 316" stroke-linejoin="bevel" stroke-miterlimit="10"/><path fill="none" stroke="black" paint-order="fill stroke markers" d=" M 90 306 L 94 306" stroke-linejoin="bevel" stroke-miterlimit="10"/><path fill="none" stroke="black" paint-order="fill stroke markers" d=" M 90 297 L 94 297" stroke-linejoin="bevel" stroke-miterlimit="10"/><path fill="none" stroke="black" paint-order="fill stroke markers" d=" M 90 287 L 94 287" stroke-linejoin="bevel" stroke-miterlimit="10"/><path fill="none" stroke="black" paint-order="fill stroke markers" d=" M 90 277 L 94 277" stroke-linejoin="bevel" stroke-miterlimit="10"/><path fill="none" stroke="black" paint-order="fill stroke markers" d=" M 90 268 L 94 268" stroke-linejoin="bevel" stroke-miterlimit="10"/><path fill="none" stroke="black" paint-order="fill stroke markers" d=" M 90 258 L 94 258" stroke-linejoin="bevel" stroke-miterlimit="10"/><path fill="none" stroke="black" paint-order="fill stroke markers" d=" M 90 248 L 94 248" stroke-linejoin="bevel" stroke-miterlimit="10"/><path fill="none" stroke="black" paint-order="fill stroke markers" d=" M 90 239 L 94 239" stroke-linejoin="bevel" stroke-miterlimit="10"/><path fill="none" stroke="black" paint-order="fill stroke markers" d=" M 90 229 L 94 229" stroke-linejoin="bevel" stroke-miterlimit="10"/><path fill="none" stroke="black" paint-order="fill stroke markers" d=" M 90 219 L 94 219" stroke-linejoin="bevel" stroke-miterlimit="10"/><path fill="none" stroke="black" paint-order="fill stroke markers" d=" M 90 210 L 94 210" stroke-linejoin="bevel" stroke-miterlimit="10"/><path fill="none" stroke="black" paint-order="fill stroke markers" d=" M 90 200 L 94 200" stroke-linejoin="bevel" stroke-miterlimit="10"/><path fill="none" stroke="black" paint-order="fill stroke markers" d=" M 90 190 L 94 190" stroke-linejoin="bevel" stroke-miterlimit="10"/><path fill="none" stroke="black" paint-order="fill stroke markers" d=" M 90 181 L 94 181" stroke-linejoin="bevel" stroke-miterlimit="10"/><path fill="none" stroke="black" paint-order="fill stroke markers" d=" M 90 171 L 94 171" stroke-linejoin="bevel" stroke-miterlimit="10"/><path fill="none" stroke="black" paint-order="fill stroke markers" d=" M 90 161 L 94 161" stroke-linejoin="bevel" stroke-miterlimit="10"/><path fill="none" stroke="black" paint-order="fill stroke markers" d=" M 90 152 L 94 152" stroke-linejoin="bevel" stroke-miterlimit="10"/><path fill="none" stroke="black" paint-order="fill stroke markers" d=" M 90 142 L 94 142" stroke-linejoin="bevel" stroke-miterlimit="10"/><path fill="none" stroke="black" paint-order="fill stroke markers" d=" M 90 132 L 94 132" stroke-linejoin="bevel" stroke-miterlimit="10"/><path fill="none" stroke="black" paint-order="fill stroke markers" d=" M 90 123 L 94 123" stroke-linejoin="bevel" stroke-miterlimit="10"/><path fill="none" stroke="black" paint-order="fill stroke markers" d=" M 90 113 L 94 113" stroke-linejoin="bevel" stroke-miterlimit="10"/><path fill="none" stroke="black" paint-order="fill stroke markers" d=" M 90 103 L 94 103" stroke-linejoin="bevel" stroke-miterlimit="10"/><path fill="none" stroke="black" paint-order="fill stroke markers" d=" M 90 94 L 94 94" stroke-linejoin="bevel" stroke-miterlimit="10"/><path fill="none" stroke="black" paint-order="fill stroke markers" d=" M 90 84 L 94 84" stroke-linejoin="bevel" stroke-miterlimit="10"/><path fill="none" stroke="black" paint-order="fill stroke markers" d=" M 90 74 L 94 74" stroke-linejoin="bevel" stroke-miterlimit="10"/><path fill="none" stroke="black" paint-order="fill stroke markers" d=" M 90 65 L 94 65" stroke-linejoin="bevel" stroke-miterlimit="10"/><path fill="none" stroke="black" paint-order="fill stroke markers" d=" M 90 55 L 94 55" stroke-linejoin="bevel" stroke-miterlimit="10"/><path fill="none" stroke="black" paint-order="fill stroke markers" d=" M 90 45 L 94 45" stroke-linejoin="bevel" stroke-miterlimit="10"/><path fill="none" stroke="black" paint-order="fill stroke markers" d=" M 90 36 L 94 36" stroke-linejoin="bevel" stroke-miterlimit="10"/><path fill="none" stroke="black" paint-order="fill stroke markers" d=" M 90 26 L 94 26" stroke-linejoin="bevel" stroke-miterlimit="10"/><path fill="none" stroke="black" paint-order="fill stroke markers" d=" M 90 16 L 94 16" stroke-linejoin="bevel" stroke-miterlimit="10"/><path fill="" stroke="black" paint-order="fill stroke markers" d=" M 90 7 L 94 7" stroke-linejoin="bevel" stroke-miterlimit="10"/><g transform="translate(83,326) rotate(0,0,0)"><text fill="" stroke="none" font-family="helvetica" font-size="12pt" font-style="normal" font-weight="normal" text-decoration="normal" x="0" y="0" text-anchor="end" dominant-baseline="central">0.01</text><g transform="rotate(0,0,0) translate(-83,-326) translate(83,277) rotate(0,0,0)"><text fill="" stroke="none" font-family="helvetica" font-size="12pt" font-style="normal" font-weight="normal" text-decoration="normal" x="0" y="0" text-anchor="end" dominant-baseline="central">0.0105</text><g transform="rotate(0,0,0) translate(-83,-277) translate(83,229) rotate(0,0,0)"><text fill="" stroke="none" font-family="helvetica" font-size="12pt" font-style="normal" font-weight="normal" text-decoration="normal" x="0" y="0" text-anchor="end" dominant-baseline="central">0.011</text><g transform="rotate(0,0,0) translate(-83,-229) translate(83,181) rotate(0,0,0)"><text fill="" stroke="none" font-family="helvetica" font-size="12pt" font-style="normal" font-weight="normal" text-decoration="normal" x="0" y="0" text-anchor="end" dominant-baseline="central">0.0115</text><g transform="rotate(0,0,0) translate(-83,-181) translate(83,132) rotate(0,0,0)"><text fill="" stroke="none" font-family="helvetica" font-size="12pt" font-style="normal" font-weight="normal" text-decoration="normal" x="0" y="0" text-anchor="end" dominant-baseline="central">0.012</text><g transform="rotate(0,0,0) translate(-83,-132) translate(83,84) rotate(0,0,0)"><text fill="" stroke="none" font-family="helvetica" font-size="12pt" font-style="normal" font-weight="normal" text-decoration="normal" x="0" y="0" text-anchor="end" dominant-baseline="central">0.0125</text><g transform="rotate(0,0,0) translate(-83,-84) translate(83,36) rotate(0,0,0)"><text fill="" stroke="none" font-family="helvetica" font-size="12pt" font-style="normal" font-weight="normal" text-decoration="normal" x="0" y="0" text-anchor="end" dominant-baseline="central">0.013</text><g transform="rotate(0,0,0) translate(-83,-36) translate(24,173) rotate(-90,0,0)"><text fill="" stroke="none" font-family="helvetica" font-size="15pt" font-style="italic" font-weight="normal" text-decoration="normal" x="0" y="0" text-anchor="middle" dominant-baseline="alphabetic">Latency (sec)</text><g transform="rotate(90,0,0) translate(-24,-173)"/></g></g></g></g></g></g></g></g></g></g><g clip-path="url(#BSvGDUEGZuss)"><g/></g></g></g></svg>