<svg version="1.1" xmlns="http://www.w3.org/2000/svg" xmlns:xlink="http://www.w3.org/1999/xlink" width="600" height="400" style="width: 600px; height: 400px;"><defs><clipPath id="TvsvofEtqCFa"><path fill="none" stroke="none" d=" M 74 5 L 570 5 L 570 341 L 74 341 L 74 5 Z"/></clipPath><clipPath id="WDCggePqlXSU"><path fill="none" stroke="none" d=" M 74 5 L 570 5 L 570 341 L 74 341 L 74 5 Z"/></clipPath><clipPath id="SzUSeTsEWOZS"><path fill="none" stroke="none" d=" M 74 5 L 570 5 L 570 341 L 74 341 L 74 5 Z"/></clipPath><clipPath id="oRotPTffIynU"><path fill="none" stroke="none" d=" M 74 5 L 570 5 L 570 341 L 74 341 L 74 5 Z"/></clipPath><clipPath id="bVAFFadfogbS"><path fill="none" stroke="none" d=" M 74 5 L 570 5 L 570 341 L 74 341 L 74 5 Z"/></clipPath><clipPath id="QnstkMCtcppa"><path fill="none" stroke="none" d=" M 74 5 L 570 5 L 570 341 L 74 341 L 74 5 Z"/></clipPath></defs><g><g transform="scale(1,1) translate(0.5,0.5)"><rect fill="#FFFFFF" stroke="none" x="0" y="0" width="600" height="400"/><rect fill="#ffffff" stroke="none" x="0" y="0" width="600" height="400"/><rect fill="#FFFFFF" stroke="none" x="74" y="5" width="496" height="336"/><rect fill="#ffffff" stroke="none" x="74" y="5" width="496" height="336"/><g><rect fill="none" stroke="#e5e5e5" x="74" y="5" width="496" height="336" stroke-linejoin="bevel" stroke-miterlimit="10"/></g><g clip-path="url(#TvsvofEtqCFa)"><g><g><path fill="none" stroke="#e5e5e5" paint-order="fill stroke markers" d=" M 197 341 L 197 5" stroke-linejoin="bevel" stroke-miterlimit="10"/><path fill="none" stroke="#e5e5e5" paint-order="fill stroke markers" d=" M 322 341 L 322 5" stroke-linejoin="bevel" stroke-miterlimit="10"/><path fill="none" stroke="#e5e5e5" paint-order="fill stroke markers" d=" M 447 341 L 447 5" stroke-linejoin="bevel" stroke-miterlimit="10"/></g></g></g><g clip-path="url(#WDCggePqlXSU)"><g><g><path fill="none" stroke="#e5e5e5" paint-order="fill stroke markers" d=" M 74 301 L 570 301" stroke-linejoin="bevel" stroke-miterlimit="10"/><path fill="none" stroke="#e5e5e5" paint-order="fill stroke markers" d=" M 74 231 L 570 231" stroke-linejoin="bevel" stroke-miterlimit="10"/><path fill="none" stroke="#e5e5e5" paint-order="fill stroke markers" d=" M 74 161 L 570 161" stroke-linejoin="bevel" stroke-miterlimit="10"/><path fill="none" stroke="#e5e5e5" paint-order="fill stroke markers" d=" M 74 90 L 570 90" stroke-linejoin="bevel" stroke-miterlimit="10"/><path fill="none" stroke="#e5e5e5" paint-order="fill stroke markers" d=" M 74 20 L 570 20" stroke-linejoin="bevel" stroke-miterlimit="10"/></g></g></g><g clip-path="url(#SzUSeTsEWOZS)"><g><g><path fill="none" stroke="none"/><path fill="none" stroke="#1f77b4" paint-order="fill stroke markers" d=" M 96.54545454545456 20.27272727272731 L 121.59595959595961 186.4844244872471 L 146.64646464646466 240.5084007923401 L 171.69696969696975 266.9709982622206 L 196.74747474747477 282.56449521766723 L 221.79797979797985 292.7909996261641 L 246.8484848484849 299.98540993653444 L 271.89898989898995 305.3047187867102 L 296.94949494949503 309.3863451686453 L 322.00000000000006 312.60974053083646 L 347.0505050505051 315.214575098003 L 372.10101010101016 317.3594912519684 L 397.15151515151524 319.15356704692675 L 422.2020202020203 320.674201346253 L 447.2525252525253 321.9777909583137 L 472.30303030303037 323.10637146982634 L 497.35353535353545 324.09189407132055 L 522.4040404040405 324.95906377306113 L 547.4545454545456 325.72727272727275" stroke-linejoin="bevel" stroke-miterlimit="10" stroke-width="2"/></g></g></g><g clip-path="url(#oRotPTffIynU)"><g><g><path fill="none" stroke="none"/><path fill="#1f77b4" stroke="#1f77b4" paint-order="fill stroke markers" d=" M 100.04545454545456 20.27272727272731 A 3.5 3.5 0 1 1 100.04545279545471 20.26922727331064" stroke-linejoin="bevel" stroke-miterlimit="10"/><path fill="#1f77b4" stroke="#1f77b4" paint-order="fill stroke markers" d=" M 125.09595959595961 186.4844244872471 A 3.5 3.5 0 1 1 125.09595784595976 186.48092448783044" stroke-linejoin="bevel" stroke-miterlimit="10"/><path fill="#1f77b4" stroke="#1f77b4" paint-order="fill stroke markers" d=" M 150.14646464646466 240.5084007923401 A 3.5 3.5 0 1 1 150.1464628964648 240.50490079292342" stroke-linejoin="bevel" stroke-miterlimit="10"/><path fill="#1f77b4" stroke="#1f77b4" paint-order="fill stroke markers" d=" M 175.19696969696975 266.9709982622206 A 3.5 3.5 0 1 1 175.1969679469699 266.96749826280393" stroke-linejoin="bevel" stroke-miterlimit="10"/><path fill="#1f77b4" stroke="#1f77b4" paint-order="fill stroke markers" d=" M 200.24747474747477 282.56449521766723 A 3.5 3.5 0 1 1 200.24747299747492 282.5609952182506" stroke-linejoin="bevel" stroke-miterlimit="10"/><path fill="#1f77b4" stroke="#1f77b4" paint-order="fill stroke markers" d=" M 225.29797979797985 292.7909996261641 A 3.5 3.5 0 1 1 225.29797804798 292.78749962674743" stroke-linejoin="bevel" stroke-miterlimit="10"/><path fill="#1f77b4" stroke="#1f77b4" paint-order="fill stroke markers" d=" M 250.3484848484849 299.98540993653444 A 3.5 3.5 0 1 1 250.34848309848505 299.9819099371178" stroke-linejoin="bevel" stroke-miterlimit="10"/><path fill="#1f77b4" stroke="#1f77b4" paint-order="fill stroke markers" d=" M 275.39898989898995 305.3047187867102 A 3.5 3.5 0 1 1 275.3989881489901 305.3012187872936" stroke-linejoin="bevel" stroke-miterlimit="10"/><path fill="#1f77b4" stroke="#1f77b4" paint-order="fill stroke markers" d=" M 300.44949494949503 309.3863451686453 A 3.5 3.5 0 1 1 300.4494931994952 309.38284516922863" stroke-linejoin="bevel" stroke-miterlimit="10"/><path fill="#1f77b4" stroke="#1f77b4" paint-order="fill stroke markers" d=" M 325.50000000000006 312.60974053083646 A 3.5 3.5 0 1 1 325.4999982500002 312.6062405314198" stroke-linejoin="bevel" stroke-miterlimit="10"/><path fill="#1f77b4" stroke="#1f77b4" paint-order="fill stroke markers" d=" M 350.5505050505051 315.214575098003 A 3.5 3.5 0 1 1 350.5505033005052 315.2110750985864" stroke-linejoin="bevel" stroke-miterlimit="10"/><path fill="#1f77b4" stroke="#1f77b4" paint-order="fill stroke markers" d=" M 375.60101010101016 317.3594912519684 A 3.5 3.5 0 1 1 375.6010083510103 317.35599125255175" stroke-linejoin="bevel" stroke-miterlimit="10"/><path fill="#1f77b4" stroke="#1f77b4" paint-order="fill stroke markers" d=" M 400.65151515151524 319.15356704692675 A 3.5 3.5 0 1 1 400.6515134015154 319.1500670475101" stroke-linejoin="bevel" stroke-miterlimit="10"/><path fill="#1f77b4" stroke="#1f77b4" paint-order="fill stroke markers" d=" M 425.7020202020203 320.674201346253 A 3.5 3.5 0 1 1 425.70201845202047 320.6707013468364" stroke-linejoin="bevel" stroke-miterlimit="10"/><path fill="#1f77b4" stroke="#1f77b4" paint-order="fill stroke markers" d=" M 450.7525252525253 321.9777909583137 A 3.5 3.5 0 1 1 450.75252350252543 321.97429095889703" stroke-linejoin="bevel" stroke-miterlimit="10"/><path fill="#1f77b4" stroke="#1f77b4" paint-order="fill stroke markers" d=" M 475.80303030303037 323.10637146982634 A 3.5 3.5 0 1 1 475.8030285530305 323.1028714704097" stroke-linejoin="bevel" stroke-miterlimit="10"/><path fill="#1f77b4" stroke="#1f77b4" paint-order="fill stroke markers" d=" M 500.85353535353545 324.09189407132055 A 3.5 3.5 0 1 1 500.8535336035356 324.0883940719039" stroke-linejoin="bevel" stroke-miterlimit="10"/><path fill="#1f77b4" stroke="#1f77b4" paint-order="fill stroke markers" d=" M 525.9040404040405 324.95906377306113 A 3.5 3.5 0 1 1 525.9040386540406 324.9555637736445" stroke-linejoin="bevel" stroke-miterlimit="10"/><path fill="#1f77b4" stroke="#1f77b4" paint-order="fill stroke markers" d=" M 550.9545454545456 325.72727272727275 A 3.5 3.5 0 1 1 550.9545437045457 325.7237727278561" stroke-linejoin="bevel" stroke-miterlimit="10"/></g></g></g><g clip-path="url(#bVAFFadfogbS)"><g><g/><g><path fill="#ffffff" stroke="#e5e5e5" paint-order="fill stroke markers" d=" M 479.625 15 L 560 15 L 560 55 L 479.625 55 L 479.625 15 Z" fill-opacity="0.95" stroke-linejoin="bevel" stroke-miterlimit="10" stroke-opacity="0.5"/><text fill="#444444" stroke="none" font-family="helvetica" font-size="10pt" font-style="normal" font-weight="normal" text-decoration="normal" x="514.625" y="35" text-anchor="start" dominant-baseline="central">M/M/c</text><g><path fill="none" stroke="#1f77b4" paint-order="fill stroke markers" d=" M 489.625 35 L 509.625 35" stroke-linejoin="bevel" stroke-miterlimit="10" stroke-width="2"/></g><path fill="#1f77b4" stroke="#1f77b4" paint-order="fill stroke markers" d=" M 503.625 35 A 4 4 0 1 1 503.6249980000002 34.99600000066666" stroke-linejoin="bevel" stroke-miterlimit="10"/></g></g></g><g/><g/><g><g fill="#444444"><path fill="none" stroke="black" paint-order="fill stroke markers" d=" M 74 341 L 570 341" stroke-linejoin="bevel" stroke-miterlimit="10"/><path fill="none" stroke="black" paint-order="fill stroke markers" d=" M 197 347 L 197 339" stroke-linejoin="bevel" stroke-miterlimit="10"/><path fill="none" stroke="black" paint-order="fill stroke markers" d=" M 322 347 L 322 339" stroke-linejoin="bevel" stroke-miterlimit="10"/><path fill="none" stroke="black" paint-order="fill stroke markers" d=" M 447 347 L 447 339" stroke-linejoin="bevel" stroke-miterlimit="10"/><path fill="none" stroke="black" paint-order="fill stroke markers" d=" M 172 345 L 172 341" stroke-linejoin="bevel" stroke-miterlimit="10"/><path fill="none" stroke="black" paint-order="fill stroke markers" d=" M 147 345 L 147 341" stroke-linejoin="bevel" stroke-miterlimit="10"/><path fill="none" stroke="black" paint-order="fill stroke markers" d=" M 122 345 L 122 341" stroke-linejoin="bevel" stroke-miterlimit="10"/><path fill="none" stroke="black" paint-order="fill stroke markers" d=" M 97 345 L 97 341" stroke-linejoin="bevel" stroke-miterlimit="10"/><path fill="none" stroke="black" paint-order="fill stroke markers" d=" M 197 345 L 197 341" stroke-linejoin="bevel" stroke-miterlimit="10"/><path fill="none" stroke="black" paint-order="fill stroke markers" d=" M 222 345 L 222 341" stroke-linejoin="bevel" stroke-miterlimit="10"/><path fill="none" stroke="black" paint-order="fill stroke markers" d=" M 247 345 L 247 341" stroke-linejoin="bevel" stroke-miterlimit="10"/><path fill="none" stroke="black" paint-order="fill stroke markers" d=" M 272 345 L 272 341" stroke-linejoin="bevel" stroke-miterlimit="10"/><path fill="none" stroke="black" paint-order="fill stroke markers" d=" M 297 345 L 297 341" stroke-linejoin="bevel" stroke-miterlimit="10"/><path fill="none" stroke="black" paint-order="fill stroke markers" d=" M 322 345 L 322 341" stroke-linejoin="bevel" stroke-miterlimit="10"/><path fill="none" stroke="black" paint-order="fill stroke markers" d=" M 347 345 L 347 341" stroke-linejoin="bevel" stroke-miterlimit="10"/><path fill="none" stroke="black" paint-order="fill stroke markers" d=" M 372 345 L 372 341" stroke-linejoin="bevel" stroke-miterlimit="10"/><path fill="none" stroke="black" paint-order="fill stroke markers" d=" M 397 345 L 397 341" stroke-linejoin="bevel" stroke-miterlimit="10"/><path fill="none" stroke="black" paint-order="fill stroke markers" d=" M 422 345 L 422 341" stroke-linejoin="bevel" stroke-miterlimit="10"/><path fill="none" stroke="black" paint-order="fill stroke markers" d=" M 447 345 L 447 341" stroke-linejoin="bevel" stroke-miterlimit="10"/><path fill="none" stroke="black" paint-order="fill stroke markers" d=" M 472 345 L 472 341" stroke-linejoin="bevel" stroke-miterlimit="10"/><path fill="none" stroke="black" paint-order="fill stroke markers" d=" M 497 345 L 497 341" stroke-linejoin="bevel" stroke-miterlimit="10"/><path fill="none" stroke="black" paint-order="fill stroke markers" d=" M 522 345 L 522 341" stroke-linejoin="bevel" stroke-miterlimit="10"/><path fill="" stroke="black" paint-order="fill stroke markers" d=" M 547 345 L 547 341" stroke-linejoin="bevel" stroke-miterlimit="10"/><g transform="translate(197,352) rotate(0,0,0)"><text fill="" stroke="none" font-family="helvetica" font-size="12pt" font-style="normal" font-weight="normal" text-decoration="normal" x="0" y="0" text-anchor="middle" dominant-baseline="hanging">5</text><g transform="rotate(0,0,0) translate(-197,-352) translate(322,352) rotate(0,0,0)"><text fill="" stroke="none" font-family="helvetica" font-size="12pt" font-style="normal" font-weight="normal" text-decoration="normal" x="0" y="0" text-anchor="middle" dominant-baseline="hanging">10</text><g transform="rotate(0,0,0) translate(-322,-352) translate(447,352) rotate(0,0,0)"><text fill="" stroke="none" font-family="helvetica" font-size="12pt" font-style="normal" font-weight="normal" text-decoration="normal" x="0" y="0" text-anchor="middle" dominant-baseline="hanging">15</text><g transform="rotate(0,0,0) translate(-447,-352) translate(322,376) rotate(0,0,0)"><text fill="" stroke="none" font-family="helvetica" font-size="15pt" font-style="italic" font-weight="normal" text-decoration="normal" x="0" y="0" text-anchor="middle" dominant-baseline="hanging">Servers Number</text><g transform="rotate(0,0,0) translate(-322,-376)"/></g></g></g></g></g></g><g><g fill="#444444"><path fill="none" stroke="black" paint-order="fill stroke markers" d=" M 74 341 L 74 5" stroke-linejoin="bevel" stroke-miterlimit="10"/><path fill="none" stroke="black" paint-order="fill stroke markers" d=" M 68 301 L 76 301" stroke-linejoin="bevel" stroke-miterlimit="10"/><path fill="none" stroke="black" paint-order="fill stroke markers" d=" M 68 231 L 76 231" stroke-linejoin="bevel" stroke-miterlimit="10"/><path fill="none" stroke="black" paint-order="fill stroke markers" d=" M 68 161 L 76 161" stroke-linejoin="bevel" stroke-miterlimit="10"/><path fill="none" stroke="black" paint-order="fill stroke markers" d=" M 68 90 L 76 90" stroke-linejoin="bevel" stroke-miterlimit="10"/><path fill="none" stroke="black" paint-order="fill stroke markers" d=" M 68 20 L 76 20" stroke-linejoin="bevel" stroke-miterlimit="10"/><path fill="none" stroke="black" paint-order="fill stroke markers" d=" M 70 315 L 74 315" stroke-linejoin="bevel" stroke-miterlimit="10"/><path fill="none" stroke="black" paint-order="fill stroke markers" d=" M 70 329 L 74 329" stroke-linejoin="bevel" stroke-miterlimit="10"/><path fill="none" stroke="black" paint-order="fill stroke markers" d=" M 70 301 L 74 301" stroke-linejoin="bevel" stroke-miterlimit="10"/><path fill="none" stroke="black" paint-order="fill stroke markers" d=" M 70 287 L 74 287" stroke-linejoin="bevel" stroke-miterlimit="10"/><path fill="none" stroke="black" paint-order="fill stroke markers" d=" M 70 273 L 74 273" stroke-linejoin="bevel" stroke-miterlimit="10"/><path fill="none" stroke="black" paint-order="fill stroke markers" d=" M 70 259 L 74 259" stroke-linejoin="bevel" stroke-miterlimit="10"/><path fill="none" stroke="black" paint-order="fill stroke markers" d=" M 70 245 L 74 245" stroke-linejoin="bevel" stroke-miterlimit="10"/><path fill="none" stroke="black" paint-order="fill stroke markers" d=" M 70 231 L 74 231" stroke-linejoin="bevel" stroke-miterlimit="10"/><path fill="none" stroke="black" paint-order="fill stroke markers" d=" M 70 217 L 74 217" stroke-linejoin="bevel" stroke-miterlimit="10"/><path fill="none" stroke="black" paint-order="fill stroke markers" d=" M 70 203 L 74 203" stroke-linejoin="bevel" stroke-miterlimit="10"/><path fill="none" stroke="black" paint-order="fill stroke markers" d=" M 70 189 L 74 189" stroke-linejoin="bevel" stroke-miterlimit="10"/><path fill="none" stroke="black" paint-order="fill stroke markers" d=" M 70 175 L 74 175" stroke-linejoin="bevel" stroke-miterlimit="10"/><path fill="none" stroke="black" paint-order="fill stroke markers" d=" M 70 161 L 74 161" stroke-linejoin="bevel" stroke-miterlimit="10"/><path fill="none" stroke="black" paint-order="fill stroke markers" d=" M 70 147 L 74 147" stroke-linejoin="bevel" stroke-miterlimit="10"/><path fill="none" stroke="black" paint-order="fill stroke markers" d=" M 70 133 L 74 133" stroke-linejoin="bevel" stroke-miterlimit="10"/><path fill="none" stroke="black" paint-order="fill stroke markers" d=" M 70 119 L 74 119" stroke-linejoin="bevel" stroke-miterlimit="10"/><path fill="none" stroke="black" paint-order="fill stroke markers" d=" M 70 104 L 74 104" stroke-linejoin="bevel" stroke-miterlimit="10"/><path fill="none" stroke="black" paint-order="fill stroke markers" d=" M 70 90 L 74 90" stroke-linejoin="bevel" stroke-miterlimit="10"/><path fill="none" stroke="black" paint-order="fill stroke markers" d=" M 70 76 L 74 76" stroke-linejoin="bevel" stroke-miterlimit="10"/><path fill="none" stroke="black" paint-order="fill stroke markers" d=" M 70 62 L 74 62" stroke-linejoin="bevel" stroke-miterlimit="10"/><path fill="none" stroke="black" paint-order="fill stroke markers" d=" M 70 48 L 74 48" stroke-linejoin="bevel" stroke-miterlimit="10"/><path fill="none" stroke="black" paint-order="fill stroke markers" d=" M 70 34 L 74 34" stroke-linejoin="bevel" stroke-miterlimit="10"/><path fill="none" stroke="black" paint-order="fill stroke markers" d=" M 70 20 L 74 20" stroke-linejoin="bevel" stroke-miterlimit="10"/><path fill="" stroke="black" paint-order="fill stroke markers" d=" M 70 6 L 74 6" stroke-linejoin="bevel" stroke-miterlimit="10"/><g transform="translate(63,301) rotate(0,0,0)"><text fill="" stroke="none" font-family="helvetica" font-size="12pt" font-style="normal" font-weight="normal" text-decoration="normal" x="0" y="0" text-anchor="end" dominant-baseline="central">0.02</text><g transform="rotate(0,0,0) translate(-63,-301) translate(63,231) rotate(0,0,0)"><text fill="" stroke="none" font-family="helvetica" font-size="12pt" font-style="normal" font-weight="normal" text-decoration="normal" x="0" y="0" text-anchor="end" dominant-baseline="central">0.04</text><g transform="rotate(0,0,0) translate(-63,-231) translate(63,161) rotate(0,0,0)"><text fill="" stroke="none" font-family="helvetica" font-size="12pt" font-style="normal" font-weight="normal" text-decoration="normal" x="0" y="0" text-anchor="end" dominant-baseline="central">0.06</text><g transform="rotate(0,0,0) translate(-63,-161) translate(63,90) rotate(0,0,0)"><text fill="" stroke="none" font-family="helvetica" font-size="12pt" font-style="normal" font-weight="normal" text-decoration="normal" x="0" y="0" text-anchor="end" dominant-baseline="central">0.08</text><g transform="rotate(0,0,0) translate(-63,-90) translate(63,20) rotate(0,0,0)"><text fill="" stroke="none" font-family="helvetica" font-size="12pt" font-style="normal" font-weight="normal" text-decoration="normal" x="0" y="0" text-anchor="end" dominant-baseline="central">0.1</text><g transform="rotate(0,0,0) translate(-63,-20) translate(24,173) rotate(-90,0,0)"><text fill="" stroke="none" font-family="helvetica" font-size="15pt" font-style="italic" font-weight="normal" text-decoration="normal" x="0" y="0" text-anchor="middle" dominant-baseline="alphabetic">Latency (sec)</text><g transform="rotate(90,0,0) translate(-24,-173)"/></g></g></g></g></g></g></g></g><g clip-path="url(#QnstkMCtcppa)"><g/></g></g></g></svg>